<svg width="139" height="149" viewBox="0 0 139 149" fill="none" xmlns="http://www.w3.org/2000/svg">
<path d="M12.5609 28.8224C14.9665 28.8224 17.3179 28.0822 19.318 26.6952C21.3182 25.3083 22.877 23.337 23.7976 21.0306C24.7181 18.7242 24.959 16.1863 24.4897 13.7378C24.0204 11.2894 22.8621 9.04031 21.1611 7.27507C19.4602 5.50983 17.293 4.30769 14.9337 3.82066C12.5744 3.33363 10.1289 3.5836 7.90655 4.53894C5.68414 5.49428 3.78464 7.11208 2.4482 9.18779C1.11177 11.2635 0.398438 13.7039 0.398438 16.2003C0.402469 19.5466 1.68516 22.7547 3.9652 25.1209C6.24523 27.4871 9.33649 28.8183 12.5609 28.8224Z" fill="#FCEEE5"/>
<path d="M126.176 120.618C123.771 120.618 121.419 121.358 119.419 122.745C117.419 124.132 115.86 126.104 114.939 128.41C114.019 130.716 113.778 133.254 114.247 135.703C114.717 138.151 115.875 140.4 117.576 142.166C119.277 143.931 121.444 145.133 123.803 145.62C126.163 146.107 128.608 145.857 130.831 144.902C133.053 143.946 134.952 142.329 136.289 140.253C137.625 138.177 138.339 135.737 138.339 133.24C138.335 129.894 137.053 126.685 134.773 124.319C132.492 121.953 129.401 120.622 126.176 120.618Z" fill="#FCEEE5"/>
<path d="M123.175 41.544C119.384 37.7806 114.877 34.8816 109.944 33.0331C105.01 31.1845 99.7576 30.4274 94.525 30.8102C78.9889 31.4878 61.853 40.4643 50.8658 53.6579C44.2991 61.2801 40.4247 70.9929 39.8787 81.2017C39.6939 88.1759 41.4014 95.0635 44.8064 101.079L44.7934 101.102C41.6514 101.547 38.4535 101.266 35.4284 100.28C32.4032 99.2927 29.6255 97.6244 27.294 95.3938C22.634 90.6729 20.7883 82.0669 22.3576 72.354C25.383 53.6376 39.3215 36.5227 59.6395 26.5727C68.4283 22.2697 79.2718 18.1135 89.175 18.3529C89.5112 18.3648 89.8427 18.2691 90.1246 18.0787C90.4065 17.8884 90.6251 17.6127 90.7509 17.289L96.0507 3.54419C96.1473 3.29788 96.1874 3.03161 96.1677 2.76646C96.1481 2.50131 96.0693 2.24456 95.9375 2.01646C95.8058 1.78837 95.6247 1.5952 95.4087 1.45225C95.1926 1.30929 94.9474 1.22046 94.6926 1.19278C80.6822 -0.10151 65.1875 4.581 52.4678 10.7995C27.1743 23.1845 9.72285 45.1151 5.78767 69.4628C3.2716 85.0281 6.83239 99.0237 15.5559 107.862C19.0921 111.396 23.2678 114.168 27.8419 116.017C32.4159 117.867 37.2977 118.758 42.2054 118.639C42.8584 118.639 43.5375 118.626 44.2078 118.596C59.7461 117.919 76.882 108.942 87.8648 95.7484C94.4325 88.1266 98.3076 78.4138 98.8541 68.2046C99.0389 61.2305 97.3314 54.3428 93.9264 48.3272V48.3046C97.0687 47.8562 100.268 48.1356 103.294 49.1225C106.32 50.1094 109.098 51.7794 111.428 54.0126C116.088 58.7335 117.931 67.3395 116.362 77.0523C113.337 95.7687 99.4004 112.884 79.0803 122.834C70.0281 127.268 59.3021 131.417 49.105 131.031C48.7659 131.014 48.43 131.107 48.1439 131.297C47.8578 131.487 47.6354 131.764 47.5074 132.09L42.2272 145.781C42.1302 146.029 42.0903 146.297 42.1106 146.565C42.1309 146.832 42.2109 147.09 42.3442 147.32C42.4774 147.549 42.6603 147.743 42.8784 147.887C43.0965 148.03 43.3438 148.119 43.6006 148.146C46.0274 148.372 48.4826 148.5 50.9573 148.5C63.048 148.5 75.4738 143.877 86.2498 138.598C111.541 126.213 128.993 104.282 132.93 79.9368C135.461 64.3782 131.9 50.3827 123.175 41.544ZM82.0926 67.283C81.7444 73.6316 79.2984 79.6615 75.1669 84.3573C71.331 88.8784 66.7523 92.6573 61.644 95.518C58.4711 91.8318 56.7001 87.0727 56.6619 82.1301C57.0097 75.7819 59.4549 69.752 63.5855 65.0558C67.4222 60.5346 72.0015 56.7558 77.1105 53.8951C80.2816 57.5825 82.0523 62.3408 82.0926 67.283Z" fill="#FCEEE5"/>
</svg>
